<?xml version="1.0" encoding="UTF-8"?>
<svg width="222px" height="210px" viewBox="0 0 222 210" version="1.1" xmlns="http://www.w3.org/2000/svg" xmlns:xlink="http://www.w3.org/1999/xlink">
    <title>Logo / UCL White</title>
    <g id="Logo-/-UCL-White" stroke="none" stroke-width="1" fill="none" fill-rule="evenodd">
        <path d="M146.8267,62.4241512 C140.5127,63.1566512 133.8037,62.2786512 131.2172,61.8726512 C126.8992,57.5586512 122.2247,52.7601512 118.7787,48.5666512 C118.4252,48.1371512 118.4082,47.5228512 118.7332,47.0704512 C123.6477,40.2189512 128.1482,34.7824512 130.0507,32.6299512 C135.4867,31.4452012 140.9072,30.3964012 144.5677,30.2468512 C144.8442,30.2357512 145.1072,30.3630512 145.2692,30.5874012 C149.9877,37.1504012 153.3627,43.4389012 154.4457,45.7369012 C152.2792,51.5579012 149.6727,57.4384012 147.4672,61.9699012 C147.3452,62.2196512 147.1037,62.3921512 146.8267,62.4241512 Z M134.4712,83.4816512 C133.3212,85.1051512 130.3897,89.3346512 125.8357,93.6126512 C125.5452,93.8856512 125.1662,94.0426512 124.7667,94.0601512 C119.0637,94.2976512 113.7612,93.8976512 111.6962,93.4471512 C109.9477,92.7241512 105.8782,90.8941512 101.0682,88.2346512 C100.6487,88.0031512 100.4017,87.5511512 100.4332,87.0741512 C100.6842,83.3456512 101.8672,78.0346512 102.9137,72.4181512 C105.5012,67.8746512 108.1837,62.6906512 110.9652,58.4326512 C111.2582,57.9846512 111.8067,57.7761512 112.3242,57.9176512 C120.6527,60.1911512 127.8797,61.9176512 130.8137,62.5776512 C134.8312,67.2361512 138.7242,70.5116512 141.3432,72.5421512 C141.5062,72.6686512 141.5482,72.8966512 141.4432,73.0736512 C137.9627,78.9006512 135.3187,82.4136512 134.4712,83.4816512 Z M89.6882,81.1316512 C86.0617,78.5646512 81.7347,75.2841512 78.1307,71.9166512 C76.0047,68.2836512 74.3652,63.6341512 73.2207,59.6746512 C73.1467,59.4196512 73.2037,59.1436512 73.3717,58.9381512 C77.4157,53.9666512 82.2692,50.0331512 84.2982,48.5356512 C88.8757,50.5102512 94.1297,52.2522512 98.7257,53.7806512 C99.1957,53.9366512 99.5277,54.3581512 99.5667,54.8506512 C100.2147,63.0266512 101.7127,69.6386512 102.1127,72.1651512 C100.3967,73.9986512 95.9127,78.1551512 91.0532,81.1711512 C90.6312,81.4326512 90.0937,81.4186512 89.6882,81.1316512 Z M69.8722,39.2306512 C69.7727,34.9440512 70.4537,31.1476512 71.2447,27.6326512 C71.3747,27.0572512 71.6732,26.5356512 72.1087,26.1370512 C74.4062,24.0327012 78.5607,20.3200512 81.1827,18.6385512 C83.6542,17.0539512 90.5232,14.8365012 93.3557,14.0139012 C93.9047,13.8538512 94.4897,14.0979512 94.7722,14.5942512 C95.1127,15.1925012 95.4687,15.7864012 95.8462,16.3710512 C98.0762,19.8424512 100.5337,22.8310512 101.5687,24.1255512 C100.1967,29.5725512 99.6137,35.6800512 99.3482,40.8320512 C99.3232,41.3153512 99.0152,41.7387012 98.5637,41.9148012 C91.3972,44.7101012 85.9807,46.8973012 84.1607,47.7373012 C79.2367,47.9450012 74.5467,48.7842512 71.3812,49.3374012 C71.1567,49.3769512 70.9452,49.2242512 70.9102,49.0005512 C70.3102,45.1406012 69.9157,41.0871512 69.8722,39.2306512 Z M107.9132,11.0378012 C115.2827,10.0644012 122.0252,9.9210512 124.6167,9.9927012 C129.3327,13.1285512 133.9412,17.2662012 137.6192,21.1902012 C137.8767,21.4652012 137.9152,21.8793012 137.7117,22.1969512 C135.0872,26.3012012 131.2702,30.2419512 129.5937,31.9579512 C123.3757,33.4294512 116.7837,35.5715012 111.4332,37.3274512 C110.9127,37.4980012 110.3407,37.3046012 110.0297,36.8534512 C105.9697,30.9564512 103.3897,25.9009512 102.3782,24.0254512 C103.4762,19.1091012 105.0117,14.7309512 107.0372,11.5929512 C107.2332,11.2881012 107.5542,11.0854012 107.9132,11.0378012 Z M155.9737,59.8231512 C155.6647,53.7696512 155.1077,47.8876512 154.8162,45.7366512 C154.8397,40.5086512 153.9727,35.0836512 153.1077,31.0836512 C153.0767,30.9390512 153.2047,30.8098512 153.3502,30.8389012 C158.2972,31.8487512 159.8852,33.7009512 159.8852,33.7009512 C157.2662,27.8304512 153.4927,23.4064512 149.3912,20.0629512 C145.8847,12.7229512 141.8487,9.3279512 141.8487,9.3279512 C142.1752,10.9514512 141.9502,12.7876012 141.3717,14.6824512 C141.3352,14.8029512 141.1972,14.8604512 141.0837,14.8054512 C134.3627,11.5200512 127.4227,10.0195012 124.7382,9.6439512 C120.7267,7.6947012 116.3452,6.4049012 112.7822,5.4272012 C112.6872,5.4012512 112.6612,5.2782512 112.7377,5.2145862 C117.4667,1.2913862 121.8167,0.292686196 121.8167,0.292686196 C114.1157,-0.0157038039 107.4872,1.3766862 101.9447,3.5057862 C93.6637,2.8426362 88.3887,4.2820362 88.3887,4.2820362 C88.3887,4.2820362 90.6752,7.0173862 91.5642,8.5401862 C91.6712,8.7243862 91.6152,8.9604362 91.4397,9.0815862 C86.2312,12.6907862 82.4942,16.6555862 81.0207,18.3060862 C79.3792,18.5279362 76.5362,18.9203862 74.0532,19.5322362 C73.9542,19.5569362 73.8702,19.4574362 73.9102,19.3635362 C76.3967,13.4445362 79.1072,10.1680362 79.1072,10.1680362 C79.1072,10.1680362 63.1252,21.5085362 60.0957,41.8870362 C60.0957,41.8870362 61.4117,38.2747362 65.8617,32.7995362 C65.9202,32.7278362 66.0337,32.7420362 66.0717,32.8267362 C67.3327,35.6164362 68.7742,38.0937362 69.4987,39.2307362 C67.0512,43.1675362 65.3617,47.4602362 64.3212,50.9732362 C64.2852,51.0952362 64.1932,51.1932362 64.0732,51.2382362 C60.3717,52.6422362 59.4287,53.9817362 59.4287,53.9817362 C60.0042,55.9457362 61.1342,57.8602362 62.5617,59.6647362 C62.6857,59.8207362 62.7487,60.0157362 62.7402,60.2147362 C62.3472,68.9117362 65.1552,74.6362362 65.1552,74.6362362 C65.7892,71.5987362 67.0307,68.6482362 68.5987,65.8792362 C68.6612,65.7687362 68.8082,65.7412362 68.9072,65.8197362 C72.5602,68.7187362 76.3442,71.2532362 77.8457,72.1532362 C78.6202,74.1292362 80.8377,79.2567362 83.8007,84.5172362 C83.8627,84.6282362 83.8122,84.7687362 83.6927,84.8122362 C80.1447,86.1037362 76.5047,86.6882362 73.1672,85.8762362 C73.1672,85.8762362 77.1922,90.8862362 89.6082,93.0227362 C93.0527,97.0897362 97.2447,100.457736 102.1402,101.627736 C102.1402,101.627736 100.7052,100.051736 100.3507,94.1787362 C100.3432,94.0597362 100.4387,93.9582362 100.5582,93.9602362 C103.6237,94.0062362 107.7822,94.0727362 111.5887,93.7967362 C112.9377,94.8592362 115.8817,97.1917362 118.7532,98.6782362 C118.8962,98.7522362 118.9052,98.9532362 118.7677,99.0367362 C113.7202,102.085236 110.3617,102.350736 110.3617,102.350736 C133.2252,102.837236 146.9527,87.9432362 146.9527,87.9432362 C143.1867,90.4177362 138.8377,91.9562362 134.5087,92.8727362 C134.3627,92.9037362 134.2347,92.7747362 134.2652,92.6287362 C135.0692,88.7442362 134.8437,84.9882362 134.7872,83.6647362 C140.2117,82.3207362 144.9437,79.8997362 148.4472,77.4247362 C148.5177,77.3747362 148.6122,77.3742362 148.6837,77.4237362 C150.1422,78.4372362 151.3902,79.5742362 152.6357,81.4672362 C152.6357,81.4672362 155.0077,78.1152362 155.8237,70.3487362 C161.6967,62.6907362 162.5697,54.8522362 162.5697,54.8522362 C161.0962,57.1537362 158.8712,58.8122362 156.2647,60.0007362 C156.1327,60.0601512 155.9812,59.9671512 155.9737,59.8231512 Z M86.8692,146.468151 L88.5907,148.589151 C93.5192,142.469151 101.9037,138.261151 110.9997,138.261151 C120.0967,138.261151 128.4807,142.469151 133.4092,148.589151 L135.1307,146.468151 C129.7032,139.994151 120.8067,135.615651 110.9997,135.615651 C101.1932,135.615651 92.2962,139.994151 86.8692,146.468151 Z M86.0042,137.690651 C85.1652,137.594651 84.6557,137.251651 83.8207,136.223151 L79.0117,130.323651 L76.4187,132.426651 L81.6562,138.856651 C82.7692,140.218151 84.0382,140.947151 85.5337,141.084151 C85.7107,141.100651 85.8857,141.109651 86.0587,141.111151 C87.5087,141.123651 88.8552,140.613651 90.1602,139.560151 C91.6137,138.375151 92.4117,136.999651 92.5987,135.354651 C92.7687,133.864151 92.3132,132.475651 91.2032,131.110651 L85.9667,124.682651 L83.3737,126.785651 L88.1807,132.688151 C89.0187,133.713651 89.2502,134.282151 89.1727,135.122651 C89.1147,135.784151 88.7097,136.465151 88.0612,136.990151 C87.4162,137.513651 86.6662,137.769151 86.0042,137.690651 Z M97.3962,120.105651 C97.0127,120.183151 96.7092,120.374651 96.5207,120.660651 C96.3302,120.946151 96.2717,121.298651 96.3492,121.681151 L98.0232,129.911651 C98.2957,131.250151 98.8972,132.214151 99.8112,132.777151 C100.4157,133.149151 101.1407,133.335151 101.9762,133.334653 C102.4017,133.334151 102.8562,133.285151 103.3372,133.187651 L108.5872,132.124651 L107.9557,129.017651 L102.8482,130.052651 C101.8027,130.263651 101.4632,130.148151 101.2247,128.977151 L101.0452,128.094151 L106.9527,126.897651 L106.3282,123.826151 L100.4202,125.022151 L99.9717,122.818651 L106.4282,121.510651 L105.7962,118.404151 L97.3962,120.105651 Z M127.1637,124.196151 L127.9592,121.133151 L122.7832,119.795151 C119.9462,119.061651 118.0032,120.121651 117.3132,122.779151 L115.1997,130.918151 C115.1022,131.296151 115.1417,131.650651 115.3152,131.945651 C115.4887,132.240151 115.7802,132.447151 116.1587,132.545151 L118.0802,133.041651 L119.4422,127.777651 L125.2677,129.283651 L126.0547,126.256151 L120.2272,124.749151 L120.4537,123.879151 C120.7532,122.725151 121.0982,122.628151 122.1302,122.895151 L127.1637,124.196151 Z M148.2487,130.328651 L150.0257,128.139151 C149.1432,127.258151 148.2247,126.403151 147.2677,125.579151 C137.3242,117.013651 124.4437,112.297151 110.9997,112.297151 C97.5562,112.297151 84.6762,117.013651 74.7317,125.579151 C73.7752,126.403151 72.8562,127.257651 71.9737,128.138651 L73.7507,130.328151 C74.6482,129.422151 75.5862,128.543651 76.5657,127.699151 C86.0007,119.573151 98.2292,115.098151 110.9997,115.098151 C123.7702,115.098151 135.9987,119.573151 145.4332,127.699151 C146.4137,128.543651 147.3512,129.422151 148.2487,130.328651 L148.2487,130.328651 Z M135.2602,139.210151 L132.7802,137.361151 L134.7772,135.933651 L135.9337,136.800651 L137.2472,132.381151 L129.6252,137.299151 L126.5007,135.535151 L138.4562,127.814651 C138.9172,127.516651 139.5477,127.254151 140.3457,127.866651 L140.8567,128.259651 C141.6622,128.878651 141.5472,129.587651 141.3897,130.067151 L137.4212,143.695151 L134.6837,141.194651 L135.2602,139.210151 Z M78.4187,205.734651 L69.6017,205.734651 L69.6017,198.978151 L74.8562,198.978151 L77.0072,200.808651 L77.0792,200.808651 L77.0792,193.911151 L77.0072,193.911151 L74.8562,195.741651 L69.6017,195.741651 L69.6017,189.864151 L78.1017,189.864151 L80.5707,192.504151 L80.6407,192.504151 L80.3587,186.661151 L62.2297,186.661151 L62.2297,186.732651 L63.8892,188.738151 L63.8892,206.896651 L62.2297,208.901651 L62.2297,208.972151 L81.1347,208.972151 L81.5932,202.251151 L81.5217,202.251151 L78.4187,205.734651 Z M87.9932,176.733151 L91.4847,176.733151 L97.2692,160.651651 L98.2557,174.655651 L96.0687,176.661151 L96.0687,176.733151 L105.5557,176.733151 L105.5557,176.661151 L103.7232,174.655651 L102.3812,156.497151 L103.8282,154.491651 L103.8282,154.422151 L95.9287,154.422151 L90.5672,169.306151 L84.7827,154.422151 L76.7772,154.422151 L76.7772,154.491651 L78.4002,156.497151 L77.4467,174.655651 L75.5087,176.661151 L75.5087,176.733151 L83.3012,176.733151 L83.3012,176.661151 L81.3627,174.655651 L81.7497,160.826651 L87.9932,176.733151 Z M47.8452,205.699151 L47.8452,188.738151 L49.92695,186.732651 L49.92695,186.661151 L40.47345,186.661151 L40.47345,186.732651 L42.13275,188.738151 L42.13275,206.896651 L40.47345,208.866151 L40.47345,208.972151 L58.21345,208.972151 L59.06095,201.970651 L58.98895,201.970651 L55.49745,205.699151 L47.8452,205.699151 Z M38.4127,176.661151 L38.4127,176.733151 L47.4072,176.733151 L47.4072,176.661151 L45.7479,174.655651 L45.7479,156.497151 L47.4072,154.491651 L47.4072,154.422151 L38.4127,154.422151 L38.4127,154.491651 L40.0355,156.497151 L40.0355,163.254151 L32.03,163.254151 L32.03,156.497151 L33.6528,154.491651 L33.6528,154.422151 L24.6588,154.422151 L24.6588,154.491651 L26.3169,156.497151 L26.3169,174.655651 L24.6588,176.661151 L24.6588,176.733151 L33.6528,176.733151 L33.6528,176.661151 L32.03,174.655651 L32.03,166.808651 L40.0355,166.808651 L40.0355,174.655651 L38.4127,176.661151 Z M178.8827,205.734651 L170.0652,205.734651 L170.0652,198.978151 L175.3192,198.978151 L177.4707,200.808651 L177.5422,200.808651 L177.5422,193.911151 L177.4707,193.911151 L175.3192,195.741651 L170.0652,195.741651 L170.0652,189.864151 L178.5657,189.864151 L181.0337,192.504151 L181.1037,192.504151 L180.8227,186.661151 L162.6937,186.661151 L162.6937,186.732651 L164.3527,188.738151 L164.3527,206.896651 L162.6937,208.901651 L162.6937,208.972151 L181.5982,208.972151 L182.0572,202.251151 L181.9852,202.251151 L178.8827,205.734651 Z M95.2987,191.202651 L92.1942,200.068651 L97.9427,200.068651 L95.2987,191.202651 Z M107.6767,208.901651 L107.6767,208.972151 L98.1202,208.972151 L98.1202,208.901651 L99.9542,206.896651 L98.9317,203.413151 L91.0317,203.413151 L89.8312,206.896651 L91.5597,208.901651 L91.5597,208.972151 L84.0832,208.972151 L84.0832,208.901651 L85.8472,206.896651 L92.7242,188.738151 L91.4187,186.732651 L91.4187,186.661151 L99.0012,186.661151 L105.8427,206.896651 L107.6767,208.901651 Z M6.7097,165.118151 C6.7097,160.192151 9.38975,156.990651 13.2342,156.990651 C14.2568,156.990651 15.24535,157.096151 16.12735,157.340651 L19.5829,161.600151 L19.6541,161.600151 L19.407,154.561651 C18.41845,154.175151 16.26855,153.646151 13.6225,153.646151 C5.4415,153.646151 0.75,159.207151 0.75,165.611651 C0.75,171.946651 5.26405,177.505151 13.023,177.505151 C15.10415,177.505151 18.1725,176.802651 20.2885,175.219151 L20.60565,171.524151 L20.53565,171.524151 C18.73755,172.931151 16.16095,173.776651 14.22265,173.776651 C9.6368,173.776651 6.7097,169.130651 6.7097,165.118151 Z M142.6477,176.661151 L141.0252,174.655651 L141.0252,156.497151 L142.6477,154.491651 L142.6477,154.422151 L133.6537,154.422151 L133.6537,154.491651 L135.3117,156.497151 L135.3117,174.655651 L133.6537,176.661151 L133.6537,176.733151 L142.6477,176.733151 L142.6477,176.661151 Z M125.1397,200.528151 L125.1397,204.715651 C124.4337,205.524151 123.1997,206.192151 121.5432,206.192151 C117.5927,206.192151 115.5117,201.371651 115.5117,197.324651 C115.5117,192.925651 117.7347,189.231151 122.3187,189.231151 C123.5882,189.231151 124.9287,189.337151 126.0212,189.722651 L129.5487,193.522651 L129.6187,193.522651 L129.4067,187.400651 C127.3617,186.344651 124.8927,185.889151 122.3887,185.889151 C114.8772,185.889151 109.5512,190.498651 109.5512,198.099151 C109.5512,204.467151 113.6427,209.747651 120.0257,209.747651 C122.8127,209.747651 125.3512,209.113151 127.7142,207.390151 L130.4992,209.747651 L130.5712,209.747651 L130.5712,200.528151 L132.3337,198.520651 L132.3337,198.450651 L122.9187,198.450651 L122.9187,198.520651 L125.1397,200.528151 Z M117.0812,165.894151 C117.7872,166.105151 118.5972,166.210151 119.4442,166.210151 C122.5487,166.210151 123.8887,164.521151 123.8887,162.022151 C123.8887,159.065651 122.1602,157.659151 118.9497,157.659151 L117.0812,157.659151 L117.0812,165.894151 Z M111.3687,156.497151 L109.7097,154.491651 L109.7097,154.422151 L120.2912,154.422151 C126.7102,154.422151 129.6372,157.340651 129.6372,161.777651 C129.6372,166.386651 126.1457,169.236651 121.3847,169.236651 C119.8332,169.236651 118.2457,169.130651 117.0812,168.850151 L117.0812,174.655651 L119.4087,176.661151 L119.4087,176.733151 L109.7097,176.733151 L109.7097,176.661151 L111.3687,174.655651 L111.3687,156.497151 Z M164.6537,167.195151 C164.6537,163.325151 163.2082,157.166151 158.2692,157.166151 C154.3192,157.166151 153.1907,161.107151 153.1907,163.781151 C153.1907,167.688151 154.8137,173.987151 159.5757,173.987151 C162.9952,173.987151 164.6537,170.748651 164.6537,167.195151 Z M158.7282,177.505151 C151.7452,177.505151 147.2312,171.769151 147.2312,165.261151 C147.2312,158.538651 152.4152,153.646151 158.9052,153.646151 C166.0637,153.646151 170.6492,159.242651 170.6492,165.647151 C170.6492,172.966651 165.1122,177.505151 158.7282,177.505151 Z M153.1042,188.738151 L153.1042,201.443151 C153.1042,205.102151 151.3057,206.017151 148.3782,206.017151 C145.4152,206.017151 143.6172,205.171651 143.6172,201.443151 L143.6172,188.738151 L145.4512,186.732651 L145.4512,186.661151 L136.2452,186.661151 L136.2452,186.732651 L137.9037,188.738151 L137.9037,201.443151 C137.9037,207.529151 141.0072,209.747651 147.6367,209.747651 C153.6682,209.747651 156.7367,207.670651 156.7367,201.618151 L156.7367,188.738151 L158.3577,186.732651 L158.3577,186.661151 L151.2697,186.661151 L151.2697,186.732651 L153.1042,188.738151 Z M191.1387,186.689151 C189.6012,186.689151 188.3977,187.888151 188.3977,189.474151 C188.3977,191.092651 189.6012,192.283651 191.1387,192.283651 C192.6597,192.283651 193.8652,191.092651 193.8652,189.474151 C193.8652,187.888151 192.6597,186.689151 191.1387,186.689151 Z M194.5417,189.474151 C194.5417,191.421151 192.9702,192.841151 191.1387,192.841151 C189.2912,192.841151 187.7222,191.421151 187.7222,189.474151 C187.7222,187.550651 189.2912,186.128651 191.1387,186.128651 C192.9702,186.128651 194.5417,187.550651 194.5417,189.474151 Z M192.0762,188.617651 C192.0762,188.136151 191.6402,188.049151 191.2267,188.049151 L190.4252,188.049151 L190.4252,189.242151 L191.1337,189.242151 C191.6297,189.242151 192.0762,189.215151 192.0762,188.617651 Z M192.7797,191.420651 L192.1267,191.420651 L191.1072,189.743151 L190.4252,189.743151 L190.4252,191.420651 L189.8417,191.420651 L189.8417,187.550651 L191.3187,187.550651 C192.2357,187.550651 192.6872,187.888151 192.6872,188.650151 C192.6872,189.343151 192.2512,189.642151 191.6847,189.715651 L192.7797,191.420651 Z M192.3707,156.497151 L192.3707,168.321151 L183.3057,154.422151 L175.1587,154.422151 L175.1587,154.491651 L176.8172,156.497151 L176.8172,174.655651 L175.1587,176.661151 L175.1587,176.733151 L182.6002,176.733151 L182.6002,176.661151 L180.4147,174.655651 L180.4147,159.875151 L191.7342,176.733151 L195.9672,176.733151 L195.9672,156.497151 L197.6242,154.491651 L197.6242,154.422151 L190.2187,154.422151 L190.2187,154.491651 L192.3707,156.497151 Z M207.6707,159.525151 C207.6707,157.378651 210.4577,156.955151 212.2207,156.955151 C213.7022,156.955151 215.0777,157.130151 216.3122,157.518151 L219.6977,161.178651 L219.7677,161.178651 L219.4862,154.878151 C217.3687,154.070151 215.1477,153.646151 212.6092,153.646151 C207.2832,153.646151 202.1692,155.476651 202.1692,160.756651 C202.1692,164.169151 204.5322,166.210151 209.6462,167.618651 C213.5967,168.709151 215.5367,169.412151 215.5367,171.418651 C215.5367,173.740651 212.5737,174.232651 210.5977,174.232651 C208.9407,174.232651 207.4592,173.987151 206.1887,173.599651 L202.7692,169.377151 L202.6977,169.377151 L202.9447,176.062651 C205.2737,177.118651 208.0947,177.505151 210.7387,177.505151 C216.4522,177.505151 221.2492,175.113651 221.2492,170.292651 C221.2492,165.752651 218.1107,164.451151 212.9607,163.008651 C208.9047,161.882651 207.6707,161.389651 207.6707,159.525151 Z M58.1207,167.829151 L63.8692,167.829151 L61.2252,158.960651 L58.1207,167.829151 Z M50.0097,176.733151 L50.0097,176.661151 L51.7744,174.655651 L58.6514,156.497151 L57.3459,154.491651 L57.3459,154.422151 L64.9279,154.422151 L71.7699,174.655651 L73.6039,176.661151 L73.6039,176.733151 L64.0469,176.733151 L64.0469,176.661151 L65.8814,174.655651 L64.8584,171.172151 L56.9584,171.172151 L55.7584,174.655651 L57.4869,176.661151 L57.4869,176.733151 L50.0097,176.733151 Z" id="Shape" fill="#FFFFFF" fill-rule="nonzero"></path>
    </g>
</svg>