<svg xmlns="http://www.w3.org/2000/svg" width="50" height="50" viewBox="0 0 50 50"><g fill="none" fill-rule="evenodd"><path fill="#FFF" d="M24.8476185,0 C27.7340878,0 30.5063028,0.48918111 33.0858825,1.38916242 C33.8229945,2.11092877 34.5699712,3.03207427 35.328826,4.19181874 C37.7710168,4.71307566 40.0433089,5.62492235 42.2477464,7.04792852 C46.9347012,11.5930995 49.8476185,17.9563756 49.8476185,25 L49.8460905,25.2225578 C49.842231,25.2052557 49.8383632,25.1879561 49.8344875,25.170659 C49.567033,26.7649164 48.6915992,28.5786587 46.9067914,30.7206916 C47.1140869,33.1133306 46.9299672,35.4613176 46.2784103,37.88281 C41.9019328,45.1441203 33.9418514,50 24.8476185,50 C21.7481844,50 18.7804861,49.4359721 16.0415648,48.4049576 L17.1507484,47.0308344 C14.0195172,45.4440572 11.6548167,43.4280797 9.74487519,40.8979445 C7.12859946,40.5210314 5.31714894,39.8164935 4.05763999,38.8872734 C1.88348338,35.6408261 0.450615414,31.8560373 -7.60579481e-05,27.7752939 C0.405432718,26.1336476 0.96220359,24.4254815 1.89960443,22.5518304 C1.7995879,19.8050386 1.84691908,15.6569689 2.79990874,13.3277684 L2.72602761,13.3429477 C4.78684596,9.4402123 7.85019918,6.14875595 11.5732846,3.81138133 C10.5537472,4.95587265 9.4355168,6.40264811 9.32282357,6.87688903 C10.0918966,6.85400705 13.3790925,7.98317719 15.4684738,9.36201509 C18.142419,7.6154703 20.397227,6.78686587 24.6651168,5.58831011 C24.6279311,4.38797969 24.5840391,1.78227682 24.5570959,0.813188876 C23.2903145,0.499461795 22.0406722,0.320357902 20.8990759,0.310253408 C22.1853732,0.105976677 23.5041197,0 24.8476185,0 Z M36.6807144,35.1061974 C33.49857,36.5021931 30.5903845,37.6096016 27.5790594,38.7018261 C26.9511483,41.2738357 26.0519634,44.2417385 25.4091462,45.86753 C27.2384394,46.3342507 30.8501779,46.9454038 33.6096719,46.6669083 C35.7832885,45.7551319 39.5783452,41.8129578 40.5529868,39.8415467 C39.8781352,38.7346012 37.7214616,36.2200868 36.6807144,35.1061974 Z M14.3528553,18.022942 C11.8447619,19.740778 9.88798769,21.6877051 7.38282369,24.5383543 C7.44190471,27.0379217 9.9125738,31.9578843 11.2823544,33.7601306 C14.3359897,33.8974782 17.4469185,33.5562065 20.5862153,32.977953 C21.0583193,31.1301426 22.2035667,25.3888528 22.5240776,23.2004995 C20.7432207,21.8576381 16.8736304,19.6090741 14.3528553,18.022942 Z M32.2615838,10.6679742 C32.0667027,13.8694908 31.6902382,16.8814381 31.280705,19.8588625 C34.1804407,21.9439233 36.6046017,23.9940006 38.5355447,26.0077966 L44.2705847,20.8285853 C43.4254758,17.2519435 42.2270594,14.0589301 40.3833596,11.2729025 Z"/><path fill="#000" d="M43.0253018,7.94918478 C43.5976326,8.52151565 44.1364125,9.11469248 44.6416412,9.72627122 C47.9056283,13.9512516 49.8476185,19.2488377 49.8476185,25 L49.8460905,25.2225578 C49.842231,25.2052557 49.8383632,25.1879561 49.8344875,25.170659 C49.567033,26.7649164 48.6915992,28.5786587 46.9067914,30.7206916 C47.1140869,33.1133306 46.9299672,35.4613176 46.2784103,37.88281 C41.9019328,45.1441203 33.9418514,50 24.8476185,50 C21.7481844,50 18.7804861,49.4359721 16.0415648,48.4049576 L17.1507484,47.0308344 C15.7213837,46.306492 14.4517485,45.492713 13.3121865,44.5814158 C17.9606568,45.2210701 22.3223728,44.7889038 26.2296546,43.5133877 C25.9374031,44.4303459 25.6545871,45.2467691 25.4091462,45.86753 C27.2384394,46.3342507 30.8501779,46.9454038 33.6096719,46.6669083 C35.7832885,45.7551319 39.5783452,41.8129578 40.5529868,39.8415467 C40.0449057,39.0081514 38.6968898,37.37691 37.6175301,36.1462212 C44.0383857,29.0880468 46.6429656,18.6002614 43.0253018,7.94918478 Z" opacity=".302"/></g></svg>