<svg xmlns="http://www.w3.org/2000/svg" width="50" height="50" viewBox="0 0 50 50"><g fill="none" fill-rule="evenodd"><path fill="#FBE76A" d="M40.9762844 43.3428148C37.0999176 46.5626181 32.2332369 48.6340516 26.8997761 49.0342705L26.3821952 49.0677667 26.3807918 47.0866997C29.3239134 46.8411265 31.2353487 45.8930973 33.7028809 43.9365889L33.9712534 43.9488235 34.6417457 43.963637 35.3081642 43.9629817 35.9714986 43.9469644C37.295743 43.899639 38.60742 43.7607821 39.9421536 43.5342371L40.9762844 43.3428148ZM8.87772574 43.2215488C11.0163485 43.7840728 13.1295175 44.0274627 15.9784199 44.0196387L16.2473303 44.0149283 16.3250261 44.0769288C18.4753208 45.7678745 20.2511506 46.632896 23.1127996 47.0059035L23.1144496 49.035334C17.900483 48.6470475 13.1320312 46.661646 9.29799389 43.5673855L8.87772574 43.2215488ZM29.5205068 36.1773033 31.5306974 41.5005303C29.3186696 43.2346613 27.8419049 43.852261 25.0849448 43.8972034L24.7478356 43.8998825C21.9608173 43.7099248 20.5650989 43.1872993 18.7605179 41.8392933L20.7226807 36.1773033 29.5205068 36.1773033ZM6.17088549 24.1757964 12.6313764 25.005076 17.6228944 35.1708767 15.7607508 40.541163C15.2187944 40.57234 14.67725 40.5933305 14.1361176 40.6041344L13.3247279 40.6127005C10.8914857 40.6154788 8.46658592 40.4119798 6.05002848 40.0022033 4.16189621 37.5322647 2.67964343 34.954603 2.20153179 32.1104356 3.28037277 28.1566541 4.60349067 25.5117744 6.17088549 24.1757964ZM43.6326862 23.6011242C45.3738269 24.6485994 46.9051595 27.5369511 48.2266839 32.2661791 46.9020644 35.8285693 45.6741246 38.3024965 44.5428644 39.6879609 42.7702027 40.4406534 40.6098823 40.8306759 38.0619031 40.8580284L37.6082356 40.8590906C36.6928523 40.8536854 35.7291793 40.8031034 34.7172166 40.7073445L32.3402857 34.41318 37.6248547 24.3733002 43.6326862 23.6011242ZM29.8924596 15.7681959 34.3707205 23.555755 29.440072 32.9207271 20.1487677 32.9207271 15.5750683 23.6035182 20.3055031 15.7681959 29.8924596 15.7681959ZM3.06251565 12.1547684 4.58505362 12.9774565 4.47867271 13.7477386C4.20945153 15.9402056 4.16935575 17.9489436 4.37437471 19.9972011L4.45311552 20.6738297 4.37861391 20.6656995 4.30528944 21.2209345 4.17103695 21.3864469C2.55137748 23.447186 1.34979026 26.0597979.680223509 28.9433632L.567610568 29.4549832C.196166231 27.7433569 2.97539771e-14 25.9636548 2.97539771e-14 24.1381959 2.97539771e-14 19.7955638 1.11016167 15.7118825 3.06251565 12.1547684ZM46.9861866 12.2439328C48.9082901 15.7800588 50 19.831804 50 24.1381959 50 25.5817613 49.8773258 26.9967124 49.6418207 28.3732188L49.5340106 28.9607678C48.8661165 26.0687072 47.6631948 23.450699 46.0407742 21.3864469L45.715888 20.9908049 45.7345175 20.8780962C46.0492353 18.5191191 46.0408198 16.2534152 45.7331385 13.7477386L45.6267576 12.9774565 46.9861866 12.2439328ZM13.7907494 9.21234432 17.4770286 14.147651 12.8835503 21.7528419 7.8061516 21.1044698C7.34894159 18.256117 7.41911962 15.6200947 7.97884716 12.370335L8.02764588 12.0803109C9.88761758 10.6864712 11.7895964 9.7304506 13.7907494 9.21234432ZM36.2640238 9.42615834C38.175564 10.0324032 40.0010712 11.0478869 41.7921926 12.4725233L42.3227554 12.9129965C42.7114945 15.3657023 42.8083519 17.4816478 42.5938422 19.6493399L42.4978547 20.4641583 36.7758547 21.1981583 32.7248547 14.1585063ZM26.6393143.591137928C29.9151962 2.62039033 31.8201619 4.59863348 33.1323103 7.47436724L33.3226807 7.91239316 29.8857242 12.5106787 20.3226807 12.5106787 16.3261846 7.1622514C17.63312 4.45379508 19.5167091 2.54613881 22.6727246.591137928ZM31.4123493 0C37.0510074 1.49005076 41.9085804 4.89836564 45.2424549 9.4833091L44.0618112 10.1203518 43.9537322 10.0292477C41.6308191 8.15759711 39.2064767 6.84821417 36.6116722 6.1325079L36.033014 5.98677994 35.8201545 5.53735322C34.8365673 3.56112896 33.5827367 1.92512997 31.9205919.439253912L31.4123493 0ZM17.5519095.29738155C15.8096435 1.82100688 14.506876 3.49803112 13.4918844 5.53735322L13.2790249 5.98677994 12.7003667 6.1325079C10.3650426 6.77664354 8.16779285 7.90165729 6.05829255 9.48465196L5.61181118 9.83160206 4.81724662 9.40155184C7.85031445 5.26553787 12.1273129 2.0965204 17.0980664.443950455L17.5519095.29738155Z"/><path fill="#000" d="M40.9739038,43.35046 C38.4646858,45.4346767 35.5405136,47.0377121 32.3433866,48.0177539 C31.8221669,48.1775276 31.2936926,48.3207435 30.758579,48.446787 L30.9895972,48.3912523 C30.8434294,48.4271139 30.6967563,48.4616918 30.5495906,48.4949732 L30.758579,48.446787 C30.6152805,48.4805403 30.4715059,48.5130621 30.327267,48.5443407 L30.5495906,48.4949732 C30.3842126,48.5323732 30.2182124,48.5681361 30.0516082,48.6022438 L30.327267,48.5443407 C30.1833608,48.5755471 30.0389925,48.605516 29.8941737,48.6342356 L29.4547797,48.7168594 C29.3063022,48.7434999 29.1573696,48.7688313 29.0079943,48.7928409 L29.3148053,48.7420272 C29.1552941,48.7697576 28.9952637,48.7959782 28.8347296,48.8206737 L29.0079943,48.7928409 C28.8528341,48.8177804 28.6971963,48.8412938 28.5410948,48.8633674 L28.8347296,48.8206737 C28.662193,48.8472155 28.4890745,48.8719956 28.315393,48.894995 L28.5410948,48.8633674 C28.4216749,48.880254 28.3019837,48.8962978 28.1820273,48.9114928 C27.6705059,48.9762875 27.1541627,49.0256457 26.6334806,49.0590852 L26.3797714,49.0740987 L26.3792019,48.4309108 C27.432868,47.8650203 28.4794816,47.2006913 29.5016628,46.4484732 C30.9307716,45.9346158 32.2148424,45.1222135 33.7005003,43.9442341 L33.9688728,43.9564687 C35.9874496,44.024219 37.9376726,43.8816998 39.939773,43.5418823 L40.9739038,43.35046 Z M43.6303056,23.6087693 C45.3714463,24.6562446 46.9027789,27.5445963 48.2243033,32.2738243 C46.8996838,35.8362144 45.671744,38.3101417 44.5404838,39.695606 C42.1717282,40.7014069 39.1107618,41.0596173 35.3575846,40.7702372 C39.0552455,36.1046067 41.606152,30.180878 41.5689488,23.8741129 L43.6303056,23.6087693 Z M46.983806,12.251578 C48.9059095,15.787704 49.9976194,19.8394492 49.9976194,24.1458411 C49.9976194,25.7956301 49.8373919,27.4080453 49.53163,28.9684129 C48.8637359,26.0763523 47.6608142,23.4583442 46.0383936,21.3940921 L45.7135074,20.9984501 L45.732137,20.8857413 C46.0468547,18.5267643 46.0384392,16.2610603 45.7307579,13.7553838 L45.624377,12.9851016 L46.983806,12.251578 Z M36.6171713,9.55313518 L36.2616432,9.43380351 C38.1731834,10.0400484 39.9986906,11.055532 41.789812,12.4801685 L42.3203748,12.9206417 C42.7091139,15.3733474 42.8059713,17.489293 42.5914616,19.656985 L42.4963871,20.473054 L41.3178282,20.6242522 C40.7684901,16.9558482 39.2916211,13.210836 36.6171713,9.55313518 Z M31.4099687,0.00764516801 C37.0486268,1.49769593 41.9061998,4.90601081 45.2400743,9.49095426 L44.0594306,10.127997 L43.9513516,10.0368929 C41.6284385,8.16524228 39.2040961,6.85585934 36.6092916,6.14015307 L36.0306334,5.9944251 L35.8177739,5.54499838 C34.8341867,3.56877413 33.5803561,1.93277513 31.9182113,0.44689908 L31.4099687,0.00764516801 Z" opacity=".304"/></g></svg>