<svg xmlns="http://www.w3.org/2000/svg" width="50" height="50" viewBox="0 0 50 50"><g fill="none" fill-rule="evenodd"><path fill="#F0AD7A" d="M41.3719491,43.959148 L41.288248,44.0327106 C37.2949884,47.4544227 32.2123221,49.6408857 26.632261,50.0000096 L26.6327097,31.5142279 C29.9607948,31.4279146 33.2876028,31.0778313 36.612611,30.4644086 C37.1190504,34.9841131 38.7098914,39.4838183 41.3719491,43.959148 Z M23.3657752,31.5142273 L23.3652502,49.9999454 C17.7463027,49.6380954 12.6317532,47.4233453 8.6260962,43.9602692 C11.2896751,39.4848191 12.8806771,34.9851137 13.3875193,30.4648329 C16.7117304,31.0779173 20.0381144,31.4279236 23.3657752,31.5142273 Z M-0.000606230653,26.5686367 C3.39007013,27.9170819 6.78335729,28.9913323 10.178698,29.7909288 C9.78865507,33.7038021 8.47687204,37.6369966 6.23269491,41.5925627 C2.66278271,37.5581923 0.37446231,32.3640398 0.00345224595,26.6472044 L-0.000606230653,26.5686367 Z M50.0001045,26.5674864 C49.6453237,32.3150989 47.3528276,37.5382649 43.7679652,41.5915502 C41.5229066,37.6363329 40.2113119,33.7034718 39.8203992,29.7895857 C43.169524,29.0020102 46.5159731,27.9462702 49.8598905,26.6238508 L50.0001045,26.5674864 Z M26.632261,-4.20783036e-06 C33.1505084,0.419499931 38.9900445,3.33246694 43.2072301,7.79513287 C38.7335164,14.2057462 36.4639293,20.6680891 36.4352111,27.1710895 C33.1662808,27.7986232 29.8988589,28.1559985 26.6328041,28.2453584 L26.632261,-4.20783036e-06 Z M23.3652502,6.00738859e-05 L23.3656333,28.2453565 C20.1001537,28.1560083 16.8333073,27.7987392 13.5645186,27.173075 C13.5363019,20.668414 11.2664772,14.2054039 6.79363647,7.7943105 C11.0093624,3.33213982 16.8480259,0.419757431 23.3652502,6.00738859e-05 Z M4.63375557,10.4121687 C8.23531936,15.7998848 10.1110846,21.1449399 10.2900361,26.4558449 C6.87056898,25.6149941 3.44915928,24.4798221 0.0247580839,23.0505376 C0.384949221,18.3737223 2.02885389,14.0567277 4.60457679,10.4514397 Z M49.9735226,23.0492688 C46.5497993,24.4788541 43.1290747,25.6141799 39.7106875,26.4559048 C39.8891393,21.1445985 41.7646743,15.8002083 45.3655763,10.4131681 C47.9581263,14.0262381 49.6121665,18.3566815 49.9735226,23.0492688 Z"/><path fill="#000" d="M32.696913,33.4836337 L32.5319968,33.6254268 C28.3141784,37.2098889 23.1878429,39.1696448 17.9765858,39.5046939 L17.9769809,32.1922916 C22.2742451,30.6509031 25.9919818,28.0764195 28.8959343,24.7863914 C29.7126347,27.6945008 30.9815044,30.5941454 32.696913,33.4836337 Z M0.425310303,32.7340846 C5.52608161,34.0614603 10.3553767,34.1037546 14.710194,33.1361494 L14.709246,39.5021092 C9.43302421,39.154497 4.24601378,37.1411384 0.00321220341,33.4620331 L0.297450728,32.9572219 Z M41.313117,16.1363046 C40.9742505,21.5209522 38.901006,26.8168596 35.0933831,31.1156486 L35.1119596,31.1480602 C33.2550278,27.8766227 32.0367036,24.6204799 31.4497542,21.3777182 C31.95063,20.58921 32.4094957,19.7728832 32.8261305,18.9320328 C35.6200439,18.2021207 38.4128463,17.2841332 41.2038849,16.1803608 Z M36.6908448,-0.0023901281 C39.4112622,3.78632075 40.9436258,8.16465509 41.2879352,12.6176151 L41.317517,12.6057787 C39.0015278,13.5728266 36.6869107,14.4052244 34.3734612,15.1031762 C35.6503012,11.0945233 36.0366741,6.69375148 35.3397488,2.16163966 C35.6624512,1.60521545 36.0052258,1.04827048 36.3664815,0.490871742 Z M34.0404414,-3.12115496 C34.2065453,-2.95505107 34.3698232,-2.78719133 34.5302751,-2.61763549 L34.3089319,-2.29434579 C34.2235772,-2.56980166 34.1340943,-2.84542359 34.0404414,-3.12115496 Z" opacity=".302" transform="translate(8.656 10.444)"/></g></svg>