<svg height="50" viewBox="0 0 50 50" width="50" xmlns="http://www.w3.org/2000/svg"><g fill="none" fill-rule="evenodd" transform="translate(0 4.8504)"><path d="m30.0045965.97418525c2.027752.497494 5.5657046.8725749 5.5065145.98053456-.6712603.54769268-2.8956384.59255363-4.7836251.59469425l-1.2751015.00051974c-1.1000245.00553334-1.8348116.0423741-1.610239.25519604 7.6914806 5.41686628 12.6459548 10.20763876 14.8634226 14.37231736-5.8107139 6.7749286-10.1318112 10.4114537-14.7104141 11.7601593-.9602892-1.370759-3.4458712-4.9806134-6.2766199-6.7430937-.99325-.6184172-1.3704272-1.3178495-2.647504-1.1878462-1.3743514.0361726-4.6264499-.3320698-9.75629547-1.104727-2.37463044-.3308522-4.56966394.0511694-5.69765669-.1281977-.27841034-.0442712-1.16561179-.8306105-1.44440133-1.2460939-.63464845-.943066-1.47433341-1.8841498-1.73605237-2.3110214-.40181456-.6553718-1.12506695-2.3802298 1.13767319-2.6026163 3.32345683-1.3696855 7.19848462-2.8278316 10.12011557-3.94459821.4111819-.15531487.8855048-.49204087 1.4229688-1.01017798.4841282-.58365832 2.5543907-3.15504298 4.028065-3.23364141.8757449-.11039151 2.5588841-.30088089 3.4216118-.39430672.1638962-.01774852.7331476-.18043082.6832628-.58129785-.3762934-1.68546092.2087852-2.97132014 1.7642059-3.99344165 1.6616238-1.09191129 4.3565867.05857778 6.9900693.51763877zm-10.5498373 7.53467059c-.0026272-1.48061407-3.8082156-.44666273-3.9715017.06932282.0102018.58445811.9075229 1.04273658 2.0042228 1.02359362 1.0966999-.01914297 1.9774806-.50845833 1.9672789-1.09291644z" fill="#d1d1d1" transform="matrix(-1 0 0 1 50 0)"/><path d="m5.70434832 19.6009284c4.77622728 5.1811897 10.87184918 10.2345662 15.14054518 11.5745765-.8198014 3.5163069-.1652461 6.1017858 0 9.1195267-12.59010946.1649544-19.44137255-4.5174637-20.8448935-13.9478738 1.09667039-1.8636071 2.99811983-4.1123502 5.70434832-6.7462294z" fill="#79c487"/></g></svg>