<svg xmlns="http://www.w3.org/2000/svg" width="50" height="50" viewBox="0 0 50 50"><g fill="none" fill-rule="evenodd"><polygon fill="#FFF" points="20.142 37.818 23.489 41.406 18.741 42.824 16.265 40.167"/><polygon fill="#FFF" points="13.528 30.726 18.538 36.098 14.702 38.49 10.828 34.339"/><polygon fill="#FFF" points="8.878 25.739 12.22 29.323 9.607 33.029 7.132 30.376"/><path fill="#FFF" d="M48.1606171 25.2445753C49.3350101 26.4152815 50.0443574 28.0476292 49.9978448 29.8349038 49.9682083 30.9737038 49.6275415 32.0822794 49.0127422 33.0405602L48.4167407 33.9695413 26.5533781 40.4914267 22.646408 36.3035493 43.9189066 23.423119C45.4509101 23.4650054 46.8396297 24.0553183 47.9019358 25.000901L48.1606171 25.2445753ZM41.3095139 10.037685 41.5924013 10.3391362C42.6055606 11.4691333 43.3498663 12.8681248 43.6993852 14.4554733L43.7596715 14.7527485 43.8098863 15.0509709 43.869925 15.5351093 43.8966187 15.8782691 43.9119732 16.3370048 43.9022661 16.8383024 43.8694312 17.2933677 43.8173031 17.722456 43.731259 18.2169627 43.60563 18.7530658 43.4851293 19.165671 43.3327797 19.6055127 43.2404527 19.8414304 43.0774883 20.2168622 42.8697585 20.6382986 42.6278642 21.0696665 21.0141077 34.5524035 15.2692775 28.3916144 30.4752021 8.03873173 32.86211 7.51615074C35.891626 6.85287943 38.9009548 7.78449774 41.0138626 9.74993594L41.3095139 10.037685ZM26.5357909 1.90044919C27.6929001 3.09246261 28.3765441 4.73922991 28.30048 6.52871836L13.9074507 26.9325505 10.0045358 22.7460271 18.0738999 1.29704039 19.0440459.766381108C20.0447901.218985012 21.176593-.0439693265 22.3168685.00599884845 23.8508029.0732176126 25.2321649.687414901 26.2806963 1.65209197L26.5357909 1.90044919ZM5.21088228 32.6338161 16.2227967 44.4415614 13.5791675 46.9065582C10.3181814 49.9471966 5.20976967 49.7688068 2.16883161 46.5081002-.773662014 43.3529526-.701752034 38.4675141 2.2608221 35.3998905L2.56725305 35.0988129 5.21088228 32.6338161Z"/><polygon fill="#EB5556" points="5.476 32.508 16.07 44.693 12.436 47.851 1.843 35.666" transform="rotate(-2 8.956 40.18)"/></g></svg>