<svg height="50" viewBox="0 0 50 50" width="50" xmlns="http://www.w3.org/2000/svg"><g fill="none" fill-rule="evenodd" transform="translate(0 3.2517)"><g transform="translate(0 7.6134)"><path d="m9.76003059 9.42309897c3.03215811 5.54695833 10.84119451 12.62861523 17.24438321 15.17005153-1.2813689 2.8698602-1.7648348 6.4712278-1.4503975 10.804103-3.3148448 2.3927228-21.82502946-4.6826469-25.5540163-7.5273728 3.31907898-9.7308332 4.41869718-11.2276337 9.76003059-18.44678173zm37.58156481 14.50256093c.7473264 1.4699708 1.9873534 2.9435184 2.4681207 4.2817432s.0226152 4.4102662-1.0597463 5.2906418c-1.0823615.8803757-6.5618688.9792492-7.2293242.2415926-.4449702-.491771-.9090701-1.1917377-1.3922997-2.0998999-.673585-.7071615-1.0960326-.4402704-1.8993399-1.2580425.2918147-.5422971.5968807-1.0501671.9161939-1.5237902.7161404.4390923 1.5552258.6892052 2.4528051.6892052 2.6078121 0 4.7218615-2.111266 4.7218615-4.7156445 0-.2644197-.0217919-.5237564-.0636799-.7763164.350195-.0595826.7129136-.1023168 1.0854088-.1294893zm-13.0385361 2.5061616c.8842733.0976504 1.7817494.1567438 2.6907029.1750573-.3480463.4756459-.6809655.9820802-.9993789 1.5167533zm8.8820942-.3196761c-.3740597.4617762-.9460782.7570329-1.5871485.7570329-.2463572 0-.482517-.0436033-.7011635-.1235038l.3845369-.3564971.6420022-.0816422zm-8.9696407-24.84439971 2.7782494 1.0552153c4.0028331 2.76036708 6.8283374 6.02732301 7.2070814 10.34708721-.0324079 1.442404-.0353746 2.4425004.1807524 3.8392456.1440847.9311634.4328185 1.9067673.8662015 2.9268116l.4495226 1.02785c.0788988.1774451.1597399.3576844.2424533.5403064-.4334913.0647492-.8563102.1477618-1.2686738.2488635-.8245215-.7091636-1.8987433-1.1373042-3.0730946-1.1373042-2.1746964 0-4.0060224 1.4682082-4.5543434 3.4662273-2.0789856-.003834-4.0181332-.246788-6.0279228-.7882955l-1.3148258-1.4616832c-.3638156.2957042-.6315132.5366569-.8777568.7397665-6.8675456-2.3280505-13.9685903-9.7214888-16.6759811-15.61123031l1.6870306-1.42552679c2.7888116-2.35652256 6.1322644-3.96330424 9.7146127-4.66860529 3.569894-.70284903 7.2653428-.3906057 10.6666944.90127188z" fill="#f7d09d"/><ellipse cx="41.598005" cy="24.831466" fill="#eb5556" rx="2.040399" ry="2.037713"/></g><path d="m39.5464522 11.0699641c1.2421592 0 1.1989046-1.35699847 1.1989046-4.3086934 0-2.95169494-1.8577475-3.80894679-2.5754054-5.28036361-.7176579-1.47141681-1.9228507 2.32866867-1.9228507 5.28036361 0 2.95169493.4753086 5.0912817 3.2993515 4.3086934z" fill="#f7d09d" transform="matrix(.89879405 .43837115 -.43837115 .89879405 6.610975 -16.248878)"/><path d="m39.4815721 11.3838891c1.2421592 0 1.1989046-1.3569984 1.1989046-4.30869336 0-2.95169493-1.8577475-3.80894679-2.5754054-5.2803636-.7176579-1.47141682-.7169173 2.57325689.377749 4.81765537s-1.8252911 5.55398989.9987518 4.77140159z" fill="#d3ad7d" transform="matrix(.89879405 .43837115 -.43837115 .89879405 6.806921 -16.502615)"/><path d="m34.2470018 11.4992417c1.2421591 0 2.2491281-2.3928215 2.2491281-5.34451643 0-2.95169494-1.7165437-6.94894597-2.2491281-5.34451646-.5325844 1.6044295-2.249128 2.39282152-2.249128 5.34451646 0 1.66328072-1.6146925 3.26356559-1.1132959 4.24377773.388393.7592941 2.8202217 1.1007387 3.3624239 1.1007387z" fill="#f7d09d" transform="matrix(.98162718 .190809 -.190809 .98162718 1.75744 -6.309509)"/><path d="m34.2263263 11.7139647c1.2421592 0 2.2491281-2.39282148 2.2491281-5.34451641 0-2.95169494-1.7165437-6.94894597-2.2491281-5.34451646-.5325843 1.60442951-1.2083139 1.52110149-1.2083139 4.47279643 0 1.66328072.6558134 2.55705966 1.1572101 3.5372718.3883929.7592941-.4910983 2.67896464.0511038 2.67896464z" fill="#d3ad7d" transform="matrix(.98162718 .190809 -.190809 .98162718 1.818701 -6.516332)"/><g fill="#f7d09d"><path d="m30.1390051 3.29937714c-1.7509607-.67993219-5.0562368.18760423-9.9158284 2.60260925 4.0637057-.67438556 6.9710388-.67161225 8.7219996.00831993 2.6264411 1.01989828 2.5008823 2.80120148 3.220282 1.39193494.7193996-1.40926653.5999879-2.98296585-2.0264532-4.00286412z" transform="matrix(.97437006 .22495105 -.22495105 .97437006 1.902101 -5.795323)"/><path d="m28.1326388 5.87042247c-2.0410838-.69697299-5.9305323.07895811-11.6683454 2.32779332 4.7752653-.57259817 8.1834398-.51041076 10.2245237.18656223 3.0616257 1.0454595 2.8842015 2.77497258 3.7514617 1.4193674.8672602-1.35560513.7539857-2.88826345-2.30764-3.93372295z"/><path d="m24.769347 7.25335149c-2.1490679-.18248706-5.7352684 1.51133833-10.7586015 5.08147611 4.4948955-1.7108308 7.8168772-2.47500263 9.9659451-2.2925156 3.2236019.2737306 3.4698551 1.9947925 3.9834033.4696454.5135483-1.52514708.032855-2.98487533-3.1907469-3.25860591z"/></g><path d="m37.657064 19.7694534c.8063145 0 1.6427052-.3871114 2.509172-1.1613342-.6296404-.9324755-1.3476179-1.3987133-2.1539325-1.3987133s-1.5820245.3952911-2.3271297 1.1858732c.5082789.9161162 1.1655756 1.3741743 1.9718902 1.3741743z" fill="#383838" transform="matrix(.8480481 .52991926 -.52991926 .8480481 15.560772 -17.28806)"/></g></svg>