<svg xmlns="http://www.w3.org/2000/svg" xmlns:xlink="http://www.w3.org/1999/xlink" width="50" height="50" viewBox="0 0 50 50"><defs><path id="b" d="M42.3070628,31.6053096 C46.5557547,31.6053096 50,28.1655992 50,23.9225013 C50,19.6794034 46.5557547,16.2396929 42.3070628,16.2396929 C44.3813518,16.7329748 47.3696543,19.6768675 47.3696543,23.5807772 C47.3696543,27.484687 44.0557047,31.1526587 42.3070628,31.6053096 Z"/><path id="c" d="M24.9803242,31.9470337 C29.2290161,31.9470337 32.6732614,28.5073232 32.6732614,24.2642253 C32.6732614,20.0211274 29.2290161,16.581417 24.9803242,16.581417 C27.0546132,17.0746989 30.0429157,20.0185915 30.0429157,23.9225013 C30.0429157,27.826411 26.7289661,31.4943827 24.9803242,31.9470337 Z"/><ellipse id="a" cx="7.693" cy="7.683" rx="7.693" ry="7.683"/></defs><g fill="none" fill-rule="evenodd" transform="translate(0 9)"><path fill="#EB5556" d="M24.9734102,0 L25.3014883,0.00591917108 C29.1729249,0.159064015 32.3056786,3.16178111 32.6568832,6.96904383 C29.2206377,7.32139853 26.3234685,9.48670883 24.9404704,12.4909119 C23.5481574,9.5539978 20.703091,7.43801839 17.3318489,7.06833123 C17.433166,5.74208548 17.8753491,4.51092822 18.5690245,3.45997221 L18.4973477,3.53419863 C19.8656507,1.4082777 22.2548532,0 24.9734102,0 Z"/><path fill="#000" d="M24.9967058,2.85569288e-13 C29.0044013,2.85569288e-13 32.2963224,3.06055973 32.6568798,6.96900697 C31.7444689,7.06202408 30.8708568,7.28328287 30.0533628,7.61394368 L30.0592973,7.34108429 C30.0592973,3.43717453 27.0709948,0.493281863 24.9967058,2.85569288e-13 Z" opacity=".25"/><path fill="#EB5556" d="M33.6485901,8.78165833 C37.1921314,8.78165833 40.1760933,11.1743482 41.0689736,14.4302423 C37.7250998,14.8589456 34.9215463,17.0073989 33.575122,19.9586408 C32.1845846,17.1250669 29.4310942,15.0800615 26.1680401,14.6733869 C26.9738776,11.2941249 30.017438,8.78165833 33.6485901,8.78165833 Z"/><path fill="#000" d="M33.6485901,8.78165833 C37.1921314,8.78165833 40.1760933,11.1743482 41.0689736,14.4302423 C40.2180168,14.5392073 39.4032645,14.7592764 38.6384077,15.0753891 C38.171809,11.7004626 35.5330225,9.22979084 33.6485901,8.78165833 Z" opacity=".25"/><path fill="#EB5556" d="M16.3448215,8.99287662 C19.8796966,8.99287662 22.857726,11.3738776 23.7586166,14.6175881 C20.5117276,15.0268602 17.7714647,17.0572817 16.3761398,19.8711166 C15.0242004,16.9820422 12.2678332,14.8795551 8.98415674,14.4379023 C9.94259511,11.2863604 12.8755193,8.99287662 16.3448215,8.99287662 Z"/><use xlink:href="#a" fill="#EB5556" transform="translate(17.304 16.581)"/><ellipse cx="7.693" cy="23.923" fill="#EB5556" rx="7.693" ry="7.683"/><ellipse cx="42.3" cy="23.923" fill="#EB5556" rx="7.693" ry="7.683"/><ellipse cx="42.3" cy="23.923" fill="#EB5556" rx="7.693" ry="7.683"/><use xlink:href="#b" fill="#000" opacity=".25"/><use xlink:href="#c" fill="#000" opacity=".25"/></g></svg>