<svg xmlns="http://www.w3.org/2000/svg" width="50" height="50" viewBox="0 0 50 50"><g fill="none" fill-rule="evenodd"><path fill="#FFF" d="M43.073453,1.69812752 C46.2466658,5.94196301 47.0283435,24.4838116 36.6326238,36.8566359 C26.5789392,48.8223753 9.11791202,51.3922802 3.70474538,49.381905 C4.69644299,44.3265389 7.49556876,38.6518223 11.7172211,32.6573105 C12.3483719,33.1531723 13.0180939,33.5826249 13.7257473,33.9448532 L13.9084088,34.0205043 C14.4651821,34.1998156 15.085901,33.9552248 15.3614013,33.4184207 C15.6675127,32.8219717 15.4315101,32.0906287 14.8342747,31.7849203 C14.2381789,31.4797952 13.6745745,31.11464 13.1416078,30.6861546 C14.70328,28.5926092 16.4291854,26.4643937 18.3048337,24.3149401 C19.0763292,24.9853042 19.9096268,25.550066 20.8034374,26.0075831 L20.9860989,26.0832343 C21.5428722,26.2625456 22.1635911,26.0179548 22.4390914,25.4811507 C22.7452028,24.8847017 22.5092002,24.1533586 21.9119649,23.8476502 C21.2011951,23.4838267 20.5366204,23.034655 19.9181888,22.4954364 C21.2779101,20.9924367 22.7070781,19.4802467 24.2003204,17.9629685 C24.8375645,17.3154671 25.4875534,16.6681093 26.1445728,16.0259519 C26.73935,16.4814699 27.3678063,16.8788926 28.0294188,17.2175538 L28.2120803,17.293205 C28.7688536,17.4725163 29.3895725,17.2279255 29.6650728,16.6911214 C29.9711842,16.0946724 29.7351816,15.3633293 29.1379463,15.0576209 C28.7154449,14.8413541 28.3092663,14.5949299 27.9209585,14.3139767 C33.6387549,8.88728678 39.5965746,3.99032745 42.6486786,1.97311563 L43.073453,1.69812752 Z M8.47067204,13.2570656 C17.8024362,2.15054475 33.6000065,-0.961108977 40.1614262,0.242651066 L39.1905575,0.941233816 C35.6480138,3.54490372 30.6403609,7.77428144 25.8110848,12.3721967 C25.2964421,11.7991017 24.8849645,11.273097 24.5770164,10.7971179 L24.456689,10.6404018 C24.0642462,10.2071268 23.4042229,10.1090537 22.8969046,10.4364139 C22.3332175,10.8001475 22.1715119,11.5513687 22.535725,12.1143136 C22.9298182,12.7234426 23.4385051,13.3707909 24.0643255,14.0596577 C23.4212301,14.690204 22.7850261,15.32469 22.1597612,15.9600194 C20.6949306,17.4484286 19.2894596,18.9326127 17.9457816,20.4082881 C17.7169052,20.1200718 17.5186368,19.8462004 17.351035,19.5871472 L17.2307076,19.4304311 C16.8382648,18.997156 16.1782415,18.899083 15.6709232,19.2264432 C15.1072361,19.5901767 14.9455306,20.341398 15.3097436,20.9043429 C15.5862393,21.3317076 15.9191427,21.7778854 16.3108703,22.2451985 C14.429002,24.394738 12.6881292,26.5263633 11.0996917,28.6296021 C10.7706306,28.2359889 10.4951362,27.8672284 10.2733449,27.5244172 L10.1530175,27.3677011 C9.76057469,26.9344261 9.10055139,26.8363531 8.59323306,27.1637132 C8.02954602,27.5274468 7.86784043,28.2786681 8.23205352,28.841613 C8.59843008,29.4079018 9.06384834,30.0072231 9.62988682,30.6418554 C5.58350993,36.3297011 2.72870993,41.7943371 1.36204309,46.8497458 C-1.10766377,40.8607275 -1.01250664,24.5437977 8.47067204,13.2570656 Z"/><path fill="#72CC77" d="M11.7172211,32.6573105 C12.3483719,33.1531723 13.0180939,33.5826249 13.7257473,33.9448532 L13.7910655,33.9733327 L13.3699814,34.5909672 C9.3654919,40.5821752 7.38205044,47.1132785 16.7569924,48.8243725 C11.1355415,50.2623427 6.17462698,50.2973106 3.70843744,49.3832748 C4.6957435,44.327957 7.49504125,38.6525714 11.7172211,32.6573105 Z M18.3048337,24.3149401 C18.9220301,24.8512314 19.5787798,25.3199372 20.2744229,25.7202166 L20.486171,25.8339939 L18.9104319,27.5924936 C17.7600498,28.8918628 16.446427,30.42433 15.1887923,32.0640515 C15.0942171,31.9514685 14.9741535,31.8565204 14.8342747,31.7849203 C14.2381789,31.4797952 13.6745745,31.11464 13.1416078,30.6861546 C14.70328,28.5926092 16.4291854,26.4643937 18.3048337,24.3149401 Z M26.1445728,16.0259519 C26.73935,16.4814699 27.3678063,16.8788926 28.0294188,17.2175538 L28.2120803,17.293205 C28.3547456,17.339151 28.5016093,17.3572649 28.6457879,17.3497622 C25.8192386,19.843864 23.395341,22.4883378 22.110221,23.981325 L22.0169366,23.9088348 L21.9119649,23.8476502 C21.2011951,23.4838267 20.5366204,23.034655 19.9181888,22.4954364 C21.2779101,20.9924367 22.7070781,19.4802467 24.2003204,17.9629685 C24.8375645,17.3154671 25.4875534,16.6681093 26.1445728,16.0259519 Z M43.0743361,1.69930902 C44.6180752,3.76547585 45.5954503,9.21609915 44.9944375,15.6936265 C42.5296043,7.96629785 35.5506,11.5523123 29.7718606,16.3777874 C29.8812841,15.860048 29.6344358,15.3117603 29.1379463,15.0576209 C28.7154449,14.8413541 28.3092663,14.5949299 27.9209585,14.3139767 C33.6387549,8.88728678 39.5965746,3.99032745 42.6486786,1.97311563 L43.0743361,1.69930902 Z"/><path fill="#000" d="M43.073453,1.69812752 C46.2466658,5.94196301 47.0283435,24.4838116 36.6326238,36.8566359 C26.5782989,48.8231374 9.11568782,51.3926075 3.70371124,49.3815209 L3.87891276,48.5738722 C26.5749304,44.4346357 41.9384909,23.9686885 42.5867009,2.01470567 L43.073453,1.69812752 Z" opacity=".298"/><path fill="#000" d="M43.073453,1.69812752 C46.2466658,5.94196301 47.0283435,24.4838116 36.6326238,36.8566359 C26.5782989,48.8231374 9.11568782,51.3926075 3.70371124,49.3815209 L3.87891276,48.5738722 C26.5749304,44.4346357 41.9384909,23.9686885 42.5867009,2.01470567 L43.073453,1.69812752 Z" opacity=".298"/></g></svg>