<svg xmlns="http://www.w3.org/2000/svg" width="50" height="50" viewBox="0 0 50 50"><g fill="none" fill-rule="evenodd" transform="translate(0 4)"><polygon fill="#000" points="13.908 9.265 46.325 9.25 46.313 35.158 13.897 35.173" transform="rotate(22 30.11 22.212)"/><polygon fill="#FFF" points="18.49 5.116 24.973 5.113 24.97 11.59 18.487 11.593" transform="rotate(22 21.73 8.353)"/><polygon fill="#FFF" points="22.073 13.546 28.556 13.543 28.553 20.02 22.07 20.023" transform="rotate(22 25.313 16.783)"/><polygon fill="#FFF" points="13.631 17.125 20.115 17.122 20.112 23.599 13.628 23.602" transform="rotate(22 16.872 20.362)"/><polygon fill="#FFF" points="17.215 25.555 23.698 25.552 23.695 32.029 17.212 32.032" transform="rotate(22 20.455 28.792)"/><polygon fill="#FFF" points="25.656 21.977 32.139 21.974 32.136 28.451 25.653 28.454" transform="rotate(22 28.896 25.214)"/><polygon fill="#FFF" points="30.514 9.968 36.998 9.965 36.995 16.442 30.511 16.445" transform="rotate(22 33.755 13.205)"/><polygon fill="#FFF" points="34.098 18.398 40.581 18.395 40.578 24.872 34.095 24.875" transform="rotate(22 37.338 21.635)"/><polygon fill="#FFF" points="29.239 30.407 35.723 30.404 35.72 36.881 29.236 36.884" transform="rotate(22 32.48 33.644)"/><polygon fill="#FFF" points="37.681 26.828 44.164 26.826 44.161 33.303 37.678 33.306" transform="rotate(22 40.921 30.066)"/><polygon fill="#FFF" points="42.539 14.82 49.022 14.817 49.019 21.294 42.536 21.297" transform="rotate(22 45.78 18.057)"/><polygon fill="#FFF" points="8.267 -1.186 10.553 -1.187 10.533 43.289 8.247 43.29" transform="rotate(22 9.4 21.051)"/></g></svg>