<svg xmlns="http://www.w3.org/2000/svg" width="50" height="50" viewBox="0 0 50 50"><g fill="none" fill-rule="evenodd"><path fill="#FFF" d="M39.2011336,37.631786 L37.8607508,39.0354571 C30.4098093,46.3007575 20.3171188,51.205813 12.1318047,49.7408712 C18.9190959,49.4189588 27.393114,44.8321098 35.0465542,37.5277294 L35.7285206,36.8669952 L37.0761044,35.4705251 C43.8465782,28.1942844 48.1668423,19.540802 48.7240871,12.5617664 C49.6782293,20.4907483 45.8296303,30.3516789 39.2011336,37.631786 Z M15.5184165,14.866062 C25.903621,4.77162927 39.1153338,0.101684003 43.8575715,5.00389372 L44.0888422,5.25694208 C48.5701219,10.4471488 44.4218457,23.3337615 34.9785706,33.4827842 L33.6653907,34.8411562 L33.1586795,35.3343344 C22.7694657,45.2916685 10.9960697,49.6728446 5.71444443,44.9154094 L5.45580944,44.6699056 C0.118207681,39.3323039 4.06640272,27.2170226 14.1956253,16.2439068 L15.5184165,14.866062 Z M11.3039033,10.6934892 C18.8094173,3.45901327 29.203138,-1.00077409 37.2212114,0.192414603 C30.1489532,0.653284354 21.0743338,5.43591859 13.4687473,12.8294453 L12.0913993,14.2632749 C5.00439892,21.940455 0.635280002,30.2797879 0.197575447,37.081337 C-0.979474904,29.1366019 3.207147,19.6055304 9.97031115,12.1002464 L11.3039033,10.6934892 Z"/><path fill="#000" d="M48.7240871,12.5617664 C49.6782293,20.4907483 45.8296303,30.3516789 39.2011336,37.631786 L37.8607508,39.0354571 C30.4098093,46.3007575 20.3171188,51.205813 12.1318047,49.7408712 C18.9190959,49.4189588 27.393114,44.8321098 35.0465542,37.5277294 L35.7285206,36.8669952 L37.0761044,35.4705251 C43.8465782,28.1942844 48.1668423,19.540802 48.7240871,12.5617664 Z M45.2765893,8.09119885 L45.3950144,7.61399869 C47.4179097,13.7103592 43.2096826,24.6365161 34.9785706,33.4827842 L33.6653907,34.8411562 L33.1586795,35.3343344 C23.2154087,44.8642634 12.0042337,49.2864587 6.42982355,45.4777986 C23.8823264,41.6862144 39.4267174,29.5709259 45.0356097,9.00404495 L45.2765893,8.09119885 Z" opacity=".302"/><path fill="#8EE4FC" d="M15.5184165,14.866062 C25.903621,4.77162927 39.1153338,0.101684003 43.8575715,5.00389372 L44.0888422,5.25694208 C48.5701219,10.4471488 44.4218457,23.3337615 34.9785706,33.4827842 L33.6671156,34.8401565 L33.1586795,35.3343344 C22.7694657,45.2916685 10.9960697,49.6728446 5.71444443,44.9154094 L5.45580944,44.6699056 C0.118207681,39.3323039 4.06640272,27.2170226 14.1956253,16.2439068 L15.5184165,14.866062 Z"/><path fill="#FFF" d="M32.1998485,30.7566118 L30.9142362,32.0734444 L29.977658,32.983548 C20.69665,41.8632071 9.41581213,48.5893647 5.35441467,44.5279672 C1.15534271,40.3288953 7.65991278,28.7980906 16.9384352,19.0035771 L18.2198548,17.686065 L19.1763416,16.7642494 C28.6597767,7.78498365 40.3276839,1.40602173 43.9171108,5.17589053 C47.6282132,9.0735515 41.3446247,21.1550139 32.1998485,30.7566118 Z"/><path fill="#282828" fill-rule="nonzero" d="M22.4590129,32.2487442 C23.1560486,32.6373037 23.406118,33.5173525 23.0175585,34.2143882 C22.661379,34.8533376 21.8922119,35.1167111 21.2295959,34.8568798 L21.0519145,34.7729338 C19.6448481,33.9885708 18.3767238,32.9765991 17.2511331,31.741946 C16.1689785,30.5549377 15.3306903,29.4683183 14.7354094,28.4723975 C14.3259804,27.7874119 14.5493631,26.9002137 15.2343487,26.4907847 C15.8622521,26.1154748 16.6600703,26.2719025 17.1040442,26.8281934 L17.2159614,26.989724 C17.5501899,27.548897 17.9971647,28.1675634 18.5566057,28.8425663 L23.7898508,23.6119389 C22.9293256,22.6257306 22.2457359,21.7113558 21.7385504,20.8628211 C21.3291215,20.1778356 21.5525042,19.2906373 22.2374897,18.8812083 C22.8653931,18.5058984 23.6632114,18.6623261 24.1071852,19.218617 L24.2191025,19.3801476 C24.6067962,20.0287694 25.1461923,20.7574407 25.8368541,21.5612344 L31.1173015,16.2817664 C30.3298228,15.3641973 29.6982418,14.5096088 29.2221188,13.7130425 C28.8126898,13.028057 29.0360726,12.1408587 29.7210581,11.7314298 C30.3489615,11.3561199 31.1467798,11.5125476 31.5907536,12.0688384 L31.7026709,12.230369 C32.188413,13.0430284 32.9122919,13.9813464 33.8734485,15.0356327 C34.7911689,16.0422743 35.814063,16.8585507 36.9457224,17.4893893 C37.6427581,17.8779488 37.8928275,18.7579976 37.504268,19.4550333 C37.1480884,20.0939827 36.3789213,20.3573562 35.7163053,20.0975249 L35.5386239,20.0135789 C34.6896088,19.5402991 33.8911802,18.9841506 33.1441272,18.3462158 L27.896302,23.5933291 C28.3930885,23.9856784 28.9149038,24.3341056 29.462154,24.6391678 C30.1591897,25.0277273 30.4092591,25.9077761 30.0206996,26.6048118 C29.66452,27.2437612 28.8953529,27.5071348 28.2327369,27.2473034 L28.0550555,27.1633574 C27.2745341,26.7282591 26.5367663,26.2231235 25.8423654,25.6487917 L20.5608466,30.9307304 C21.1558654,31.4358836 21.7883384,31.8748796 22.4590129,32.2487442 Z"/><path fill="#000" d="M45.2765893,8.09119885 L45.3950144,7.61399869 C47.4179097,13.7103592 43.2096826,24.6365161 34.9785706,33.4827842 L33.6671156,34.8401565 L33.1586795,35.3343344 C23.2154087,44.8642634 12.0042337,49.2864587 6.42982355,45.4777986 C23.8823264,41.6862144 39.4267174,29.5709259 45.0356097,9.00404495 L45.2765893,8.09119885 Z" opacity=".299"/><path fill="#282828" fill-rule="nonzero" d="M22.4590129,32.2487442 C23.1560486,32.6373037 23.406118,33.5173525 23.0175585,34.2143882 C22.661379,34.8533376 21.8922119,35.1167111 21.2295959,34.8568798 L21.0519145,34.7729338 C19.6448481,33.9885708 18.3767238,32.9765991 17.2511331,31.741946 C16.1689785,30.5549377 15.3306903,29.4683183 14.7354094,28.4723975 C14.3259804,27.7874119 14.5493631,26.9002137 15.2343487,26.4907847 C15.8622521,26.1154748 16.6600703,26.2719025 17.1040442,26.8281934 L17.2159614,26.989724 C17.5501899,27.548897 17.9971647,28.1675634 18.5566057,28.8425663 L23.7898508,23.6119389 C22.9293256,22.6257306 22.2457359,21.7113558 21.7385504,20.8628211 C21.3291215,20.1778356 21.5525042,19.2906373 22.2374897,18.8812083 C22.8653931,18.5058984 23.6632114,18.6623261 24.1071852,19.218617 L24.2191025,19.3801476 C24.6067962,20.0287694 25.1461923,20.7574407 25.8368541,21.5612344 L31.1173015,16.2817664 C30.3298228,15.3641973 29.6982418,14.5096088 29.2221188,13.7130425 C28.8126898,13.028057 29.0360726,12.1408587 29.7210581,11.7314298 C30.3489615,11.3561199 31.1467798,11.5125476 31.5907536,12.0688384 L31.7026709,12.230369 C32.188413,13.0430284 32.9122919,13.9813464 33.8734485,15.0356327 C34.7911689,16.0422743 35.814063,16.8585507 36.9457224,17.4893893 C37.6427581,17.8779488 37.8928275,18.7579976 37.504268,19.4550333 C37.1480884,20.0939827 36.3789213,20.3573562 35.7163053,20.0975249 L35.5386239,20.0135789 C34.6896088,19.5402991 33.8911802,18.9841506 33.1441272,18.3462158 L27.896302,23.5933291 C28.3930885,23.9856784 28.9149038,24.3341056 29.462154,24.6391678 C30.1591897,25.0277273 30.4092591,25.9077761 30.0206996,26.6048118 C29.66452,27.2437612 28.8953529,27.5071348 28.2327369,27.2473034 L28.0550555,27.1633574 C27.2745341,26.7282591 26.5367663,26.2231235 25.8423654,25.6487917 L20.5608466,30.9307304 C21.1558654,31.4358836 21.7883384,31.8748796 22.4590129,32.2487442 Z"/></g></svg>