<svg xmlns="http://www.w3.org/2000/svg" xmlns:xlink="http://www.w3.org/1999/xlink" width="50" height="50" viewBox="0 0 50 50"><defs><path id="a" d="M34.2385696,34.1934898 C42.0711161,26.371256 42.0711161,13.6889092 34.2385696,5.86667535 C40.1802332,23.3370078 25.2004456,40.259019 5.87440984,34.1934898 C13.7069563,42.0157236 26.4060232,42.0157236 34.2385696,34.1934898 Z"/></defs><g fill="none" fill-rule="evenodd" transform="translate(5)"><path fill="#ADDC9B" d="M14.2467712,41.6066522 C16.4479918,42.4232144 18.6492125,42.8314955 20.8504332,42.8314955 C23.0516539,42.8314955 25.2528746,42.4232144 27.4540952,41.6066522 L27.4540952,43.331246 L26.958347,43.6159472 C24.6551078,44.9386647 22.9071199,47.0381713 22.0221779,49.5285647 L21.8664402,50 L20.0564897,50 C19.6363459,47.3710913 17.9535756,45.1143717 15.5519642,43.9590977 L14.2467712,43.331246 L14.2467712,41.6066522 Z"/><path fill="#FFF" d="M20.0564897,0 C31.1333831,0 40.1129795,8.96777343 40.1129795,20.0300826 C40.1129795,31.0923917 31.1333831,40.0601651 20.0564897,40.0601651 C8.97959632,40.0601651 0,31.0923917 0,20.0300826 C0,8.96777343 8.97959632,0 20.0564897,0 Z M20.9022778,31.4733736 L20.927726,31.53332 C21.040218,31.8170212 21.1020383,32.1262762 21.1020383,32.449951 C21.1020383,33.8255691 19.9854093,34.9407279 18.6079776,34.9407279 C18.3204682,34.9407279 18.0443213,34.8921431 17.7873197,34.8027458 C18.1697591,35.67224 19.0420076,36.2804127 20.0564897,36.2804127 C21.4265147,36.2804127 22.5371393,35.1712504 22.5371393,33.8030293 C22.5371393,32.7314292 21.8558678,31.8187391 20.9022778,31.4733736 Z M30.5569466,26.9638481 L30.5991217,27.0415658 C30.7696138,27.377535 30.8656886,27.757543 30.8656886,28.159961 C30.8656886,29.5281821 29.755064,30.6373444 28.3850391,30.6373444 C28.1470183,30.6373444 27.9168273,30.6038658 27.6989296,30.5413664 C28.1181236,31.3245881 28.9457124,31.8575279 29.89794,31.8575279 C31.2753717,31.8575279 32.3920007,30.7423691 32.3920007,29.366751 C32.3920007,28.2189502 31.6145977,27.2524825 30.5569466,26.9638481 Z M24.9403867,19.4216973 L24.9848135,19.5044369 C25.1553056,19.8404061 25.2513804,20.2204142 25.2513804,20.6228321 C25.2513804,21.9910532 24.1407558,23.1002156 22.7707309,23.1002156 C22.488017,23.1002156 22.2163492,23.052984 21.9632074,22.965991 C22.3854643,23.726761 23.1988862,24.2422396 24.1328633,24.2422396 C25.5028882,24.2422396 26.6135128,23.1330772 26.6135128,21.7648561 C26.6135128,20.6789767 25.9139641,19.7562705 24.9403867,19.4216973 Z M35.4601697,16.5713827 L35.5228166,16.6662181 C35.7633815,17.049264 35.9024772,17.5023315 35.9024772,17.9878438 C35.9024772,19.3634619 34.7858482,20.4786207 33.4084165,20.4786207 C33.2111919,20.4786207 33.0193141,20.4557585 32.8352954,20.4125429 C33.2826713,21.0604423 34.0345304,21.4866267 34.8860614,21.4866267 C36.2634931,21.4866267 37.3801221,20.3714679 37.3801221,18.9958498 C37.3801221,17.8175489 36.5608548,16.8303461 35.4601697,16.5713827 Z M30.4784316,8.55247573 L30.5544553,8.69167424 C30.7258691,9.02945977 30.8224633,9.41152224 30.8224633,9.8161158 C30.8224633,11.1917339 29.7058343,12.3068927 28.3284027,12.3068927 C28.1233461,12.3068927 27.9240694,12.2821786 27.7333962,12.2355704 C28.1664886,12.9693801 28.9672695,13.4627072 29.8834251,13.4627072 C31.2608568,13.4627072 32.3774858,12.3475484 32.3774858,10.9719303 C32.3774858,9.8010988 31.5685725,8.81895035 30.4784316,8.55247573 Z"/><use xlink:href="#a" fill="#000" opacity=".288"/></g></svg>