<svg id="dealer" width="33" height="30" viewBox="0 0 998.441 915.244" class="cat-nav__icon" data-v-470accc6=""><path d="M349.456 665.638h133.125v116.484H349.456V665.638zm-166.403 0h133.121v116.484H183.053V665.638zm249.61-199.688h133.121v33.273H432.663V465.95zm83.203 199.688h133.121v116.484H515.866V665.638zm74.883-574.102c0 50.547-40.977 91.523-91.527 91.523-50.547 0-91.523-40.977-91.523-91.523 0-50.555 40.977-91.531 91.523-91.531 50.55 0 91.527 40.977 91.527 91.531z" data-v-470accc6=""></path> <path d="M765.475 532.513H232.971c-92.125 0-199.688 47.938-199.688 183.047v16.633c0 135.109 107.563 183.055 199.688 183.055h532.504c92.125 0 199.688-47.945 199.688-183.055V715.56c0-135.11-107.563-183.047-199.688-183.047zm-183.047 33.281h216.324c9.195 0 16.641 7.445 16.641 16.641 0 9.188-7.445 16.633-16.641 16.633H582.428c-9.191 0-16.645-7.445-16.645-16.633.001-9.196 7.454-16.641 16.645-16.641zm-382.738 0h216.328c9.195 0 16.645 7.445 16.645 16.641 0 9.188-7.449 16.633-16.645 16.633H199.69c-9.188 0-16.637-7.445-16.637-16.633 0-9.196 7.45-16.641 16.637-16.641zm619.637 309.797a231.106 231.106 0 01-53.852 6.367H232.971a231.16 231.16 0 01-53.852-6.367 16.642 16.642 0 01-12.359-11.457 16.637 16.637 0 0120.211-20.879 201.227 201.227 0 0046 5.422h532.504a201.201 201.201 0 0046-5.422 16.64 16.64 0 0120.211 20.879 16.642 16.642 0 01-12.359 11.457zm29.348-93.469c0 18.375-14.898 33.281-33.281 33.281h-632.34c-18.383 0-33.285-14.906-33.285-33.281V665.638c0-18.391 14.902-33.289 33.285-33.289h299.527v-49.914c0-9.195 7.453-16.641 16.641-16.641 9.195 0 16.645 7.445 16.645 16.641v49.914h299.527c18.383 0 33.281 14.898 33.281 33.289v116.484z" data-v-470accc6=""></path> <path d="M682.272 665.638h133.121v116.484H682.272V665.638zM399.378 449.302V299.544c0-9.195 7.457-16.641 16.641-16.641 9.195 0 16.645 7.445 16.645 16.641v133.125h133.121V299.544c0-9.195 7.453-16.641 16.645-16.641 9.184 0 16.637 7.445 16.637 16.641v199.68h33.281V272.911c0-31.25-25.328-56.57-56.578-56.57H422.68c-31.25 0-56.578 25.32-56.578 56.57v226.313h33.277v-49.922zM73.534 351.13c31.969 22.848 59.594 42.566 59.594 81.539 0 9.184 7.453 16.633 16.641 16.633 9.195 0 16.641-7.449 16.641-16.633 0-38.973 27.629-58.691 59.59-81.539 34.461-24.625 73.535-52.535 73.535-108.648 0-31.32-27.988-92.703-92.699-92.703a69.435 69.435 0 00-57.066 25.656 69.414 69.414 0 00-57.063-25.656c-64.715 0-92.703 61.383-92.703 92.703-.001 56.113 39.069 84.023 73.53 108.648zm858.348-94.852h-1.418a123.916 123.916 0 001.418-18.859c0-54.063-31.891-87.641-83.207-87.641-51.324 0-83.199 33.578-83.199 87.641a124.117 124.117 0 001.406 18.887l-1.406-.027c-44.313 0-66.566 44.816-66.566 69.891 0 29.02 25.816 69.883 83.203 69.883a79.15 79.15 0 0031.34-6.23 74.498 74.498 0 01-35.633 26.773c-8.059 2.156-13.273 9.953-12.195 18.234 1.086 8.281 8.137 14.473 16.488 14.473 1.449 0 2.895-.188 4.293-.566a107.645 107.645 0 0062.27-52.422 107.646 107.646 0 0062.27 52.422c8.816 2.379 17.879-2.84 20.27-11.641 2.445-8.84-2.723-17.98-11.555-20.453a74.636 74.636 0 01-35.75-26.789 79.34 79.34 0 0031.328 6.199c57.398 0 83.203-40.863 83.203-69.883-.002-25.075-22.248-69.892-66.56-69.892z" data-v-470accc6=""></path></svg>