<svg id="Capa_1" width="27" height="29" enable-background="new 0 0 512.991 512.991" viewBox="0 0 512.991 512.991" xmlns="http://www.w3.org/2000/svg" class="cat-nav__icon" data-v-470accc6=""><g id="XMLID_462_" data-v-470accc6=""><path id="XMLID_464_" d="m454.873 157.491 57.001-57.001-4.459-8.575c-19.885-38.24-49.275-68.27-84.992-86.843l-9.128-4.747-57.794 57.794z" data-v-470accc6=""></path> <path id="XMLID_465_" d="m4.665 382.044h170.677v80.73h-170.677z" transform="matrix(.707 -.707 .707 .707 -272.327 187.363)" data-v-470accc6=""></path> <path id="XMLID_466_" d="m127.917 164.813h299.99v140.534h-299.99z" transform="matrix(.707 -.707 .707 .707 -84.828 265.367)" data-v-470accc6=""></path> <path id="XMLID_467_" d="m159.298 57.137-57.137-57.137-9.753 5.072c-35.717 18.573-65.107 48.603-84.992 86.843l-5.072 9.753 56.211 56.211z" data-v-470accc6=""></path> <path id="XMLID_468_" d="m86.987 117.089h142.472v79.431h-142.472z" transform="matrix(.707 -.707 .707 .707 -64.535 157.807)" data-v-470accc6=""></path> <path id="XMLID_469_" d="m278.052 376.738 27.766 27.199 100.745-100.745-27.767-27.198z" data-v-470accc6=""></path> <path id="XMLID_471_" d="m389.62 353.351h80.73v150.432h-80.73z" transform="matrix(.707 -.707 .707 .707 -177.103 429.57)" data-v-470accc6=""></path> <circle id="XMLID_444_" cx="256.337" cy="461.465" r="51.526" data-v-470accc6=""></circle></g></svg>