<svg width="512" height="340" viewBox="0 0 512 340" fill="none" xmlns="http://www.w3.org/2000/svg">
<g clip-path="url(#clip0_1_1625)">
<path d="M512 0.331055H0V339.672H512V0.331055Z" fill="#F0F0F0"/>
<path d="M288 0.328125H224V138.183H0V201.809H224V339.664H288V201.809H512V138.183H288V0.328125Z" fill="#D80027"/>
<path d="M393.785 229.011L512 294.303V229.011H393.785Z" fill="#0052B4"/>
<path d="M311.652 229.011L512 339.664V308.374L368.307 229.011H311.652Z" fill="#0052B4"/>
<path d="M458.634 339.664L311.652 258.478V339.664H458.634Z" fill="#0052B4"/>
<path d="M311.652 229.011L512 339.664V308.374L368.307 229.011H311.652Z" fill="#F0F0F0"/>
<path d="M311.652 229.011L512 339.664V308.374L368.307 229.011H311.652Z" fill="#D80027"/>
<path d="M90.341 229.009L0 278.905V229.009H90.341Z" fill="#0052B4"/>
<path d="M200.348 243.08V339.663H25.491L200.348 243.08Z" fill="#0052B4"/>
<path d="M143.693 229.011L0 308.374V339.664L200.348 229.011H143.693Z" fill="#D80027"/>
<path d="M118.215 110.981L0 45.6893V110.981H118.215Z" fill="#0052B4"/>
<path d="M200.348 110.981L0 0.328125V31.6181L143.693 110.981H200.348Z" fill="#0052B4"/>
<path d="M53.366 0.328125L200.348 81.5146V0.328125H53.366Z" fill="#0052B4"/>
<path d="M200.348 110.981L0 0.328125V31.6181L143.693 110.981H200.348Z" fill="#F0F0F0"/>
<path d="M200.348 110.981L0 0.328125V31.6181L143.693 110.981H200.348Z" fill="#D80027"/>
<path d="M421.659 110.983L512 61.0867V110.983H421.659Z" fill="#0052B4"/>
<path d="M311.652 96.912V0.329102H486.509L311.652 96.912Z" fill="#0052B4"/>
<path d="M368.307 110.981L512 31.6181V0.328125L311.652 110.981H368.307Z" fill="#D80027"/>
</g>
<defs>
<clipPath id="clip0_1_1625">
<rect width="512" height="340" fill="white"/>
</clipPath>
</defs>
</svg>
